<?xml version="1.0" standalone="no"?>
<!DOCTYPE svg PUBLIC "-//W3C//DTD SVG 20010904//EN"
 "http://www.w3.org/TR/2001/REC-SVG-20010904/DTD/svg10.dtd">
<svg version="1.0" xmlns="http://www.w3.org/2000/svg"
 width="338.000000pt" height="214.000000pt" viewBox="0 0 338.000000 214.000000"
 preserveAspectRatio="xMidYMid meet">

<g transform="translate(0.000000,214.000000) scale(0.100000,-0.100000)"
fill="#000000" stroke="none">
<path d="M110 1655 l0 -475 -24 -10 c-35 -13 -66 -58 -66 -95 0 -37 31 -82 66
-95 l24 -10 0 -470 0 -470 1575 0 1575 0 0 125 0 124 30 16 c37 19 50 43 50
93 0 29 -7 46 -26 66 -15 14 -33 26 -40 26 -12 0 -14 45 -14 245 0 243 0 244
23 256 61 31 77 114 32 163 -13 14 -31 26 -40 26 -13 0 -15 31 -15 245 l0 244
30 16 c37 19 50 43 50 93 0 29 -7 46 -26 66 -15 14 -33 26 -40 26 -11 0 -14
28 -14 135 l0 135 -1575 0 -1575 0 0 -475z m610 -580 l0 -1035 -300 0 -300 0
0 1035 0 1035 300 0 300 0 0 -1035z m960 535 l940 0 3 253 c1 138 2 -216 3
-788 0 -572 -2 -1003 -3 -958 l-4 83 -939 0 -939 0 -4 -82 c-1 -46 -3 385 -3
957 1 572 2 926 3 788 l3 -253 940 0z m1560 -535 l0 -1035 -300 0 -300 0 0
1035 0 1035 300 0 300 0 0 -1035z m-1871 859 c68 -48 54 -158 -24 -184 -69
-23 -135 27 -135 102 0 79 94 127 159 82z m728 -14 c75 -45 42 -160 -45 -160
-40 0 -92 46 -92 82 1 32 23 68 51 84 33 18 49 17 86 -6z"/>
<path d="M320 1335 c0 -25 5 -45 10 -45 6 0 10 20 10 45 0 25 -4 45 -10 45 -5
0 -10 -20 -10 -45z"/>
<path d="M350 1335 c0 -49 16 -62 22 -17 l4 27 14 -27 c20 -41 30 -34 28 20
-1 38 -2 41 -5 13 l-4 -34 -20 32 c-26 43 -39 39 -39 -14z"/>
<path d="M486 1365 c-17 -13 -17 -15 -4 -15 11 0 18 -11 21 -32 3 -25 4 -22 5
15 1 26 1 47 0 47 -2 0 -12 -7 -22 -15z"/>
<path d="M289 1203 c-13 -17 -13 -17 6 -3 11 8 22 16 24 17 2 2 0 3 -6 3 -6 0
-17 -8 -24 -17z"/>
<path d="M274 1070 c0 -63 1 -89 3 -57 2 31 2 83 0 115 -2 31 -3 5 -3 -58z"/>
<path d="M383 1163 c49 -3 67 -8 67 -18 0 -10 -18 -15 -67 -18 -45 -2 -30 -3
42 -4 61 -1 104 1 98 4 -7 2 -13 11 -13 18 0 7 6 16 13 18 6 3 -37 5 -98 4
-72 -1 -87 -2 -42 -4z m117 -18 c0 -8 -9 -15 -20 -15 -11 0 -20 7 -20 15 0 8
9 15 20 15 11 0 20 -7 20 -15z"/>
<path d="M1207 1593 c260 -2 686 -2 945 0 260 1 48 2 -472 2 -520 0 -732 -1
-473 -2z"/>
<path d="M740 1170 l0 -70 940 0 940 0 0 70 0 70 -940 0 -940 0 0 -70z"/>
<path d="M1207 1083 c260 -2 686 -2 945 0 260 1 48 2 -472 2 -520 0 -732 -1
-473 -2z"/>
<path d="M740 650 l0 -80 940 0 940 0 0 80 0 80 -940 0 -940 0 0 -80z"/>
<path d="M1207 213 c260 -2 686 -2 945 0 260 1 48 2 -472 2 -520 0 -732 -1
-473 -2z"/>
<path d="M2790 2056 c-28 -35 11 -93 48 -70 35 22 22 84 -18 84 -10 0 -23 -7
-30 -14z m51 -17 c9 -17 8 -25 -4 -36 -19 -19 -37 -9 -37 21 0 40 23 49 41 15z"/>
<path d="M2872 2028 c3 -40 5 -43 33 -43 29 0 30 2 32 45 1 42 0 40 -13 -17
-8 -41 -34 -28 -34 17 0 22 -5 40 -11 40 -6 0 -9 -17 -7 -42z"/>
<path d="M2962 2063 c12 -3 18 -17 21 -46 l4 -42 1 42 c2 30 7 43 20 46 9 3
-1 5 -23 5 -22 0 -32 -2 -23 -5z"/>
<path d="M3055 2060 c-5 -9 -1 -10 14 -5 15 4 21 2 21 -8 0 -9 -6 -18 -12 -20
-10 -4 -10 -6 0 -6 6 -1 12 -8 12 -17 0 -11 -6 -14 -22 -9 -18 6 -20 4 -12 -5
7 -6 20 -10 30 -8 15 2 19 12 19 43 0 33 -4 41 -22 43 -11 2 -24 -2 -28 -8z"/>
<path d="M2888 1903 c34 -2 90 -2 125 0 34 2 6 3 -63 3 -69 0 -97 -1 -62 -3z"/>
<path d="M3094 1760 c0 -69 1 -97 3 -62 2 34 2 90 0 125 -2 34 -3 6 -3 -63z"/>
<path d="M2823 1790 c0 -41 2 -58 4 -37 2 20 2 54 0 75 -2 20 -4 3 -4 -38z"/>
<path d="M2858 1853 c6 -2 12 -11 12 -18 0 -7 -6 -16 -12 -18 -7 -3 34 -5 92
-5 58 0 99 2 93 5 -7 2 -13 11 -13 18 0 7 6 16 13 18 6 3 -35 5 -93 5 -58 0
-99 -2 -92 -5z m62 -18 c0 -8 -9 -15 -20 -15 -11 0 -20 7 -20 15 0 8 9 15 20
15 11 0 20 -7 20 -15z m50 0 c0 -8 -9 -15 -20 -15 -11 0 -20 7 -20 15 0 8 9
15 20 15 11 0 20 -7 20 -15z m50 0 c0 -8 -9 -15 -20 -15 -11 0 -20 7 -20 15 0
8 9 15 20 15 11 0 20 -7 20 -15z"/>
<path d="M2945 1650 l-50 -7 47 -1 c26 -1 50 3 53 8 3 6 5 9 3 8 -2 0 -25 -4
-53 -8z"/>
<path d="M2790 1366 c-28 -35 11 -93 48 -70 35 22 22 84 -18 84 -10 0 -23 -7
-30 -14z m51 -17 c9 -17 8 -25 -4 -36 -19 -19 -37 -9 -37 21 0 40 23 49 41 15z"/>
<path d="M2872 1338 c3 -40 5 -43 33 -43 29 0 30 2 32 45 1 42 0 40 -13 -17
-8 -41 -34 -28 -34 17 0 22 -5 40 -11 40 -6 0 -9 -17 -7 -42z"/>
<path d="M2962 1373 c12 -3 18 -17 21 -46 l4 -42 1 42 c2 30 7 43 20 46 9 3
-1 5 -23 5 -22 0 -32 -2 -23 -5z"/>
<path d="M3054 1369 c-4 -8 0 -9 15 -4 28 8 28 -15 1 -40 -28 -26 -25 -35 13
-34 25 1 27 3 9 6 l-24 5 22 23 c13 14 20 31 17 39 -7 18 -43 21 -53 5z"/>
<path d="M3094 1070 c0 -69 1 -97 3 -62 2 34 2 90 0 125 -2 34 -3 6 -3 -63z"/>
<path d="M2823 1100 c0 -41 2 -58 4 -37 2 20 2 54 0 75 -2 20 -4 3 -4 -38z"/>
<path d="M2858 1163 c6 -2 12 -11 12 -18 0 -7 -6 -16 -12 -18 -7 -3 34 -5 92
-5 58 0 99 2 93 5 -7 2 -13 13 -13 24 0 13 -7 19 -22 18 -17 -1 -19 -2 -5 -6
24 -6 22 -33 -3 -33 -13 0 -20 7 -20 20 0 14 -6 20 -22 19 -17 -1 -19 -2 -5
-6 24 -6 22 -33 -3 -33 -13 0 -20 7 -20 20 0 14 -6 20 -22 19 -17 -1 -19 -2
-5 -6 24 -6 22 -33 -3 -33 -13 0 -20 7 -20 20 0 13 -6 20 -17 19 -11 0 -13 -3
-5 -6z"/>
<path d="M2790 676 c-28 -35 11 -93 48 -70 35 22 22 84 -18 84 -10 0 -23 -7
-30 -14z m51 -17 c9 -17 8 -25 -4 -36 -19 -19 -37 -9 -37 21 0 40 23 49 41 15z"/>
<path d="M2872 648 c3 -40 5 -43 33 -43 29 0 30 2 32 45 1 42 0 40 -13 -17 -8
-41 -34 -28 -34 17 0 22 -5 40 -11 40 -6 0 -9 -17 -7 -42z"/>
<path d="M2962 683 c12 -3 18 -17 21 -46 l4 -42 1 42 c2 30 7 43 20 46 9 3 -1
5 -23 5 -22 0 -32 -2 -23 -5z"/>
<path d="M3055 680 c-5 -9 -1 -10 14 -5 15 4 21 2 21 -8 0 -9 -6 -18 -12 -20
-10 -4 -10 -6 0 -6 6 -1 12 -8 12 -17 0 -11 -6 -14 -22 -9 -18 6 -20 4 -12 -5
7 -6 20 -10 30 -8 15 2 19 12 19 43 0 33 -4 41 -22 43 -11 2 -24 -2 -28 -8z"/>
<path d="M3094 380 c0 -69 1 -97 3 -63 2 35 2 91 0 126 -2 34 -3 6 -3 -63z"/>
<path d="M2823 410 c0 -41 2 -58 4 -37 2 20 2 54 0 75 -2 20 -4 3 -4 -38z"/>
<path d="M2858 473 c6 -2 12 -11 12 -18 0 -7 -6 -16 -12 -18 -7 -3 34 -6 92
-6 58 0 100 3 94 7 -7 4 -14 16 -17 27 -4 18 -5 18 -6 -2 -1 -30 -41 -33 -41
-3 0 14 -6 20 -22 19 -17 -1 -19 -2 -5 -6 24 -6 22 -33 -3 -33 -13 0 -20 7
-20 20 0 14 -6 20 -22 19 -17 -1 -19 -2 -5 -6 24 -6 22 -33 -3 -33 -13 0 -20
7 -20 20 0 13 -6 20 -17 19 -11 0 -13 -3 -5 -6z"/>
</g>
</svg>
